# xmcd
#
# Track frame offsets:
#	150
#	21334
#	36335
#	53814
#	65673
#	79750
#	96685
#	116133
#	135339
#	152350
#	174796
#
# Disc length: 2588 seconds
#
# Revision: 1
# Processed by: cddbd v1.5.1PL0 Copyright (c) Steve Scherf et al.
# Submitted via: audiograbber 1.83.01
#
DISCID=8e0a1a0b
DTITLE=Фруктовый кефир - Фруктовый кефир
DYEAR=2005
DGENRE=Alternative Rock
TTITLE0=Белый шоколад (Смотри сама, как по-кайфу)
TTITLE1=Страшные сны
TTITLE2=Прозевали (Пой, земля)
TTITLE3=Пружинка (Песня потерявшего собаку)
TTITLE4=Да пошла ты
TTITLE5=Хип хоп блюз (Не прет, бэйби)
TTITLE6=Убежали в облака
TTITLE7=Рано, рано день...
TTITLE8=Кроет... А
TTITLE9=С тобою без тебя
TTITLE10=Карамельный дождь
EXTD=
EXTT0=
EXTT1=
EXTT2=
EXTT3=
EXTT4=
EXTT5=
EXTT6=
EXTT7=
EXTT8=
EXTT9=
EXTT10=
PLAYORDER=
